G04 #@! TF.FileFunction,Copper,L1,Top,Signal*
%FSLAX46Y46*%
G04 Gerber Fmt 4.6, Leading zero omitted, Abs format (unit mm)*
G04 Created by KiCad (PCBNEW (2015-05-12 BZR 5652)-product) date Sat 29 Aug 2015 10:27:59 BST*
%MOMM*%
G01*
G04 APERTURE LIST*
%ADD10C,0.100000*%
%ADD11R,0.497840X2.199640*%
%ADD12R,2.000000X2.500000*%
%ADD13R,1.600000X2.000000*%
%ADD14C,0.400000*%
G04 APERTURE END LIST*
D10*
D11*
X3175000Y7007860D03*
X4437380Y7007860D03*
X5704840Y7007860D03*
X6974840Y7007860D03*
X6985000Y13312140D03*
X5715000Y13312140D03*
X4445000Y13312140D03*
X3175000Y13312140D03*
D12*
X10160000Y17780000D03*
X7620000Y17780000D03*
X5080000Y17780000D03*
X2540000Y17780000D03*
X2540000Y2540000D03*
X5080000Y2540000D03*
X7620000Y2540000D03*
X10160000Y2540000D03*
D13*
X10160000Y11860000D03*
X10160000Y8460000D03*
D14*
X3175000Y13312140D02*
X3175000Y14986000D01*
X3175000Y14986000D02*
X2413000Y15748000D01*
X2413000Y15748000D02*
X2413000Y17653000D01*
X2413000Y17653000D02*
X2540000Y17780000D01*
X3175000Y13312140D02*
X3175000Y11812320D01*
X3175000Y11812320D02*
X4527320Y10460000D01*
X7158000Y10460000D02*
X8558000Y11860000D01*
X4527320Y10460000D02*
X7158000Y10460000D01*
X8558000Y11860000D02*
X10160000Y11860000D01*
X10102851Y5080000D02*
X10160000Y5022851D01*
X7620000Y5080000D02*
X10102851Y5080000D01*
X6974840Y5725160D02*
X7620000Y5080000D01*
X6974840Y7007860D02*
X6974840Y5725160D01*
X10160000Y8460000D02*
X10160000Y5022851D01*
X10160000Y5022851D02*
X10160000Y2540000D01*
X9906000Y2794000D02*
X10160000Y2540000D01*
X3175000Y7007860D02*
X3175000Y5207000D01*
X3175000Y5207000D02*
X2413000Y4445000D01*
X2413000Y4445000D02*
X2413000Y2667000D01*
X2413000Y2667000D02*
X2540000Y2540000D01*
X4437380Y7007860D02*
X4437380Y5087620D01*
X4437380Y5087620D02*
X5080000Y4445000D01*
X5080000Y4445000D02*
X5080000Y2540000D01*
X4437380Y7007860D02*
X4445000Y7000240D01*
X5080000Y3048000D02*
X5080000Y2794000D01*
X5080000Y2794000D02*
X5207000Y2667000D01*
X5207000Y2667000D02*
X5080000Y2540000D01*
X5704840Y7007860D02*
X5704840Y5344160D01*
X5704840Y5344160D02*
X7620000Y3429000D01*
X7620000Y3429000D02*
X7620000Y2540000D01*
X6985000Y13312140D02*
X6985000Y14605000D01*
X6985000Y14605000D02*
X7620000Y15240000D01*
X7620000Y15240000D02*
X9398000Y15240000D01*
X9398000Y15240000D02*
X10160000Y16002000D01*
X10160000Y16002000D02*
X10160000Y17780000D01*
X9906000Y17526000D02*
X10160000Y17780000D01*
X5715000Y13312140D02*
X5715000Y14732000D01*
X5715000Y14732000D02*
X7620000Y16637000D01*
X7620000Y16637000D02*
X7620000Y17780000D01*
X4445000Y13312140D02*
X4445000Y15113000D01*
X4445000Y15113000D02*
X5080000Y15748000D01*
X5080000Y15748000D02*
X5080000Y17780000D01*
M02*
