<?xml version="1.0" standalone="no"?>
 <!DOCTYPE svg PUBLIC "-//W3C//DTD SVG 1.1//EN" 
 "http://www.w3.org/Graphics/SVG/1.1/DTD/svg11.dtd"> 
<svg xmlns="http://www.w3.org/2000/svg" version="1.1" 
    width="1.82118cm" height="2.03962cm" viewBox="0 0 7170 8030 ">
<title>SVG Picture created as PCBExample-brd.svg date 2015/08/22 17:45:32 </title>
  <desc>Picture generated by PCBNEW </desc>
<g style="fill:#000000; fill-opacity:1;stroke:#000000; stroke-opacity:1;
stroke-linecap:round; stroke-linejoin:round; "
 transform="translate(0 0) scale(1 1)">
</g>
<g style="fill:#840000; fill-opacity:0.0; 
stroke:#840000; stroke-width:39.3701; stroke-opacity:1; 
stroke-linecap:round; stroke-linejoin:round;">
</g>
<g style="fill:#840000; fill-opacity:1.0; 
stroke:#840000; stroke-width:39.3701; stroke-opacity:1; 
stroke-linecap:round; stroke-linejoin:round;">
<polyline style="fill-rule:evenodd;"
points="2261,5674
2261,4847
2418,4847
2418,5674
2261,5674
" /> 
<polyline style="fill-rule:evenodd;"
points="2758,5674
2758,4847
2915,4847
2915,5674
2758,5674
" /> 
<polyline style="fill-rule:evenodd;"
points="3257,5674
3257,4847
3414,4847
3414,5674
3257,5674
" /> 
<polyline style="fill-rule:evenodd;"
points="3757,5674
3757,4847
3914,4847
3914,5674
3757,5674
" /> 
<polyline style="fill-rule:evenodd;"
points="3761,3192
3761,2365
3918,2365
3918,3192
3761,3192
" /> 
<polyline style="fill-rule:evenodd;"
points="3261,3192
3261,2365
3418,2365
3418,3192
3261,3192
" /> 
<polyline style="fill-rule:evenodd;"
points="2761,3192
2761,2365
2918,2365
2918,3192
2761,3192
" /> 
<polyline style="fill-rule:evenodd;"
points="2261,3192
2261,2365
2418,2365
2418,3192
2261,3192
" /> 
<polyline style="fill-rule:evenodd;"
points="5463,547
5463,1492
4715,1492
4715,547
5463,547
" /> 
<polyline style="fill-rule:evenodd;"
points="4463,547
4463,1492
3715,1492
3715,547
4463,547
" /> 
<polyline style="fill-rule:evenodd;"
points="3463,547
3463,1492
2715,1492
2715,547
3463,547
" /> 
<polyline style="fill-rule:evenodd;"
points="2463,547
2463,1492
1715,1492
1715,547
2463,547
" /> 
<polyline style="fill-rule:evenodd;"
points="1715,7492
1715,6547
2463,6547
2463,7492
1715,7492
" /> 
<polyline style="fill-rule:evenodd;"
points="2715,7492
2715,6547
3463,6547
3463,7492
2715,7492
" /> 
<polyline style="fill-rule:evenodd;"
points="3715,7492
3715,6547
4463,6547
4463,7492
3715,7492
" /> 
<polyline style="fill-rule:evenodd;"
points="4715,7492
4715,6547
5463,6547
5463,7492
4715,7492
" /> 
<polyline style="fill-rule:evenodd;"
points="4794,2976
5385,2976
5385,3724
4794,3724
4794,2976
" /> 
<polyline style="fill-rule:evenodd;"
points="4794,4314
5385,4314
5385,5062
4794,5062
4794,4314
" /> 
</g>
<g style="fill:#840000; fill-opacity:1.0; 
stroke:#840000; stroke-width:157.48; stroke-opacity:1; 
stroke-linecap:round; stroke-linejoin:round;">
</g>
<g style="fill:#840000; fill-opacity:0.0; 
stroke:#840000; stroke-width:157.48; stroke-opacity:1; 
stroke-linecap:round; stroke-linejoin:round;">
<path d="M2339 2778
L2339 2119
" />
<path d="M2339 2119
L2039 1819
" />
<path d="M2039 1819
L2039 1069
" />
<path d="M2039 1069
L2089 1019
" />
<path d="M2339 2778
L2339 3369
" />
<path d="M2339 3369
L2872 3901
" />
<path d="M3908 3901
L4459 3350
" />
<path d="M2872 3901
L3908 3901
" />
<path d="M4459 3350
L5089 3350
" />
<path d="M5067 6019
L5089 6042
" />
<path d="M4089 6019
L5067 6019
" />
<path d="M3835 5765
L4089 6019
" />
<path d="M3835 5260
L3835 5765
" />
<path d="M5089 4688
L5089 6042
" />
<path d="M5089 6042
L5089 7019
" />
<path d="M4989 6919
L5089 7019
" />
<path d="M2339 5260
L2339 5969
" />
<path d="M2339 5969
L2039 6269
" />
<path d="M2039 6269
L2039 6969
" />
<path d="M2039 6969
L2089 7019
" />
<path d="M2836 5260
L2836 6016
" />
<path d="M2836 6016
L3089 6269
" />
<path d="M3089 6269
L3089 7019
" />
<path d="M2836 5260
L2839 5263
" />
<path d="M3089 6819
L3089 6919
" />
<path d="M3089 6919
L3139 6969
" />
<path d="M3139 6969
L3089 7019
" />
<path d="M3335 5260
L3335 5915
" />
<path d="M3335 5915
L4089 6669
" />
<path d="M4089 6669
L4089 7019
" />
<path d="M3839 2778
L3839 2269
" />
<path d="M3839 2269
L4089 2019
" />
<path d="M4089 2019
L4789 2019
" />
<path d="M4789 2019
L5089 1719
" />
<path d="M5089 1719
L5089 1019
" />
<path d="M4989 1119
L5089 1019
" />
<path d="M3339 2778
L3339 2219
" />
<path d="M3339 2219
L4089 1469
" />
<path d="M4089 1469
L4089 1019
" />
<path d="M2839 2778
L2839 2069
" />
<path d="M2839 2069
L3089 1819
" />
<path d="M3089 1819
L3089 1019
" />
</g>
<g style="fill:#FFFFFF; fill-opacity:0.0; 
stroke:#FFFFFF; stroke-width:39.3701; stroke-opacity:1; 
stroke-linecap:round; stroke-linejoin:round;">
</g>
<g style="fill:#FFFFFF; fill-opacity:1.0; 
stroke:#FFFFFF; stroke-width:39.3701; stroke-opacity:1; 
stroke-linecap:round; stroke-linejoin:round;">
<circle cx="5089.89" cy="1019.69" r="180.315" /> 
<circle cx="4089.89" cy="1019.69" r="180.315" /> 
<circle cx="3089.89" cy="1019.69" r="180.315" /> 
<circle cx="2089.89" cy="1019.69" r="180.315" /> 
<circle cx="2089.89" cy="7019.69" r="180.315" /> 
<circle cx="3089.89" cy="7019.69" r="180.315" /> 
<circle cx="4089.89" cy="7019.69" r="180.315" /> 
<circle cx="5089.89" cy="7019.69" r="180.315" /> 
</g>
<g style="fill:#008484; fill-opacity:1.0; 
stroke:#008484; stroke-width:26; stroke-opacity:1; 
stroke-linecap:round; stroke-linejoin:round;">
</g>
<g style="fill:#008484; fill-opacity:0.0; 
stroke:#008484; stroke-width:26; stroke-opacity:1; 
stroke-linecap:round; stroke-linejoin:round;">
<path d="M2271 3035
L2408 3035
" />
<path d="M2408 3035
L2408 2681
" />
<path d="M2271 2681
L2408 2681
" />
<path d="M2271 3035
L2271 2681
" />
<path d="M2771 3035
L2908 3035
" />
<path d="M2908 3035
L2908 2681
" />
<path d="M2771 2681
L2908 2681
" />
<path d="M2771 3035
L2771 2681
" />
<path d="M3270 3035
L3407 3035
" />
<path d="M3407 3035
L3407 2681
" />
<path d="M3270 2681
L3407 2681
" />
<path d="M3270 3035
L3270 2681
" />
<path d="M3770 3035
L3907 3035
" />
<path d="M3907 3035
L3907 2681
" />
<path d="M3770 2681
L3907 2681
" />
<path d="M3770 3035
L3770 2681
" />
<path d="M3766 5357
L3903 5357
" />
<path d="M3903 5357
L3903 5003
" />
<path d="M3766 5003
L3903 5003
" />
<path d="M3766 5357
L3766 5003
" />
<path d="M3266 5357
L3403 5357
" />
<path d="M3403 5357
L3403 5003
" />
<path d="M3266 5003
L3403 5003
" />
<path d="M3266 5357
L3266 5003
" />
<path d="M2767 5357
L2904 5357
" />
<path d="M2904 5357
L2904 5003
" />
<path d="M2767 5003
L2904 5003
" />
<path d="M2767 5357
L2767 5003
" />
<path d="M2271 5357
L2408 5357
" />
<path d="M2408 5357
L2408 5003
" />
<path d="M2271 5003
L2408 5003
" />
<path d="M2271 5357
L2271 5003
" />
</g>
<g style="fill:#008484; fill-opacity:0.0; 
stroke:#008484; stroke-width:60; stroke-opacity:1; 
stroke-linecap:round; stroke-linejoin:round;">
<path d="M4018 5003
L2168 5003
" />
<path d="M2168 3035
L4018 3035
" />
<path d="M2219 3035
L2168 3035
" />
<path d="M2464 3035
L2715 3035
" />
<path d="M2964 3035
L3214 3035
" />
<path d="M3463 3035
L3714 3035
" />
<path d="M3959 3035
L4018 3035
" />
<path d="M3955 5003
L4006 5003
" />
<path d="M3714 5003
L3459 5003
" />
<path d="M3214 5003
L2960 5003
" />
<path d="M2715 5003
L2464 5003
" />
<path d="M2219 5003
L2168 5003
" />
<path d="M2066 3134
L2066 4900
" />
<path d="M4112 4904
L4112 3134
" />
</g>
<g style="fill:#008484; fill-opacity:0.0; 
stroke:#008484; stroke-width:10; stroke-opacity:1; 
stroke-linecap:round; stroke-linejoin:round;">
<circle cx="2530.89" cy="4457.69" r="138.593" /> 
</g>
<g style="fill:#008484; fill-opacity:0.0; 
stroke:#008484; stroke-width:60; stroke-opacity:1; 
stroke-linecap:round; stroke-linejoin:round;">
<path d="M2164.89 3036.69 A98 98 0.0 0 0 2066.89 3134.69 " />
<path d="M4113.89 3134.69 A99 99 0.0 0 0 4014.89 3035.69 " />
<path d="M4014.89 5002.69 A98 98 0.0 0 0 4112.89 4904.69 " />
<path d="M2065.89 4904.69 A99 99 0.0 0 0 2164.89 5003.69 " />
</g>
<g style="fill:#008484; fill-opacity:0.0; 
stroke:#008484; stroke-width:59.0551; stroke-opacity:1; 
stroke-linecap:round; stroke-linejoin:round;">
<path d="M4589 1519
L1589 1519
" />
<path d="M4589 519
L1589 519
" />
<path d="M5700 409
L5089 409
" />
<path d="M1589 1519
L1589 519
" />
<path d="M4589 519
L4589 1519
" />
<path d="M5089 1629
L5700 1629
" />
<path d="M5700 1629
L5700 409
" />
<path d="M2589 6519
L5589 6519
" />
<path d="M2589 7519
L5589 7519
" />
<path d="M1479 7629
L2089 7629
" />
<path d="M5589 6519
L5589 7519
" />
<path d="M2589 7519
L2589 6519
" />
<path d="M2089 6409
L1479 6409
" />
<path d="M1479 6409
L1479 7629
" />
<path d="M5493 4413
L5493 3625
" />
<path d="M4686 3625
L4686 4413
" />
</g>
<g style="fill:#008484; fill-opacity:0.0; 
stroke:#008484; stroke-width:35; stroke-opacity:1; 
stroke-linecap:round; stroke-linejoin:round;">
<path d="M1723 6188
L1723 5950
" />
<path d="M1866 6236
L1366 6069
L1866 5903
" />
<path d="M1366 5807
L1366 5522
" />
<path d="M1866 5664
L1366 5664
" />
<path d="M1366 5426
L1366 5141
" />
<path d="M1866 5283
L1366 5283
" />
<path d="M1866 4974
L1366 4974
" />
<path d="M1866 4736
L1366 4736
L1866 4450
L1366 4450
" />
<path d="M1627 4117
L1866 4117
" />
<path d="M1366 4283
L1627 4117
L1366 3950
" />
<path d="M1580 3712
L1556 3760
L1532 3783
L1485 3807
L1461 3807
L1413 3783
L1389 3760
L1366 3712
L1366 3617
L1389 3569
L1413 3545
L1461 3522
L1485 3522
L1532 3545
L1556 3569
L1580 3617
L1580 3712
L1604 3760
L1627 3783
L1675 3807
L1770 3807
L1818 3783
L1842 3760
L1866 3712
L1866 3617
L1842 3569
L1818 3545
L1770 3522
L1675 3522
L1627 3545
L1604 3569
L1580 3617
" />
<path d="M1366 3069
L1366 3307
L1604 3331
L1580 3307
L1556 3260
L1556 3141
L1580 3093
L1604 3069
L1651 3045
L1770 3045
L1818 3069
L1842 3093
L1866 3141
L1866 3260
L1842 3307
L1818 3331
" />
<path d="M1675 2831
L1675 2450
" />
<path d="M1842 2236
L1866 2164
L1866 2045
L1842 1998
L1818 1974
L1770 1950
L1723 1950
L1675 1974
L1651 1998
L1627 2045
L1604 2141
L1580 2188
L1556 2212
L1508 2236
L1461 2236
L1413 2212
L1389 2188
L1366 2141
L1366 2022
L1389 1950
" />
</g>
<g style="fill:#008484; fill-opacity:0.0; 
stroke:#008484; stroke-width:59.0551; stroke-opacity:1; 
stroke-linecap:round; stroke-linejoin:round;">
<path d="M5880 3035
L5899 3054
L5917 3110
L5917 3147
L5899 3204
L5861 3241
L5824 3260
L5749 3279
L5693 3279
L5618 3260
L5580 3241
L5543 3204
L5524 3147
L5524 3110
L5543 3054
L5561 3035
" />
<path d="M5917 2660
L5917 2885
" />
<path d="M5917 2772
L5524 2772
L5580 2810
L5618 2847
L5636 2885
" />
</g>
<g style="fill:#C2C200; fill-opacity:0.0; 
stroke:#C2C200; stroke-width:39.3701; stroke-opacity:1; 
stroke-linecap:round; stroke-linejoin:round;">
<path d="M6089 8019
L6089 19
" />
<path d="M1089 8019
L6089 8019
" />
<path d="M1089 19
L1089 8019
" />
<path d="M6089 19
L1089 19
" />
</g> 
</svg>
