G04 #@! TF.GenerationSoftware,KiCad,Pcbnew,(6.0.9)*
G04 #@! TF.CreationDate,2023-03-27T15:46:57+01:00*
G04 #@! TF.ProjectId,ATtiny85_breakout,41547469-6e79-4383-955f-627265616b6f,rev?*
G04 #@! TF.SameCoordinates,PX8eeaea0PY5734380*
G04 #@! TF.FileFunction,Copper,L1,Top*
G04 #@! TF.FilePolarity,Positive*
%FSLAX46Y46*%
G04 Gerber Fmt 4.6, Leading zero omitted, Abs format (unit mm)*
G04 Created by KiCad (PCBNEW (6.0.9)) date 2023-03-27 15:46:57*
%MOMM*%
%LPD*%
G01*
G04 APERTURE LIST*
G04 Aperture macros list*
%AMRoundRect*
0 Rectangle with rounded corners*
0 $1 Rounding radius*
0 $2 $3 $4 $5 $6 $7 $8 $9 X,Y pos of 4 corners*
0 Add a 4 corners polygon primitive as box body*
4,1,4,$2,$3,$4,$5,$6,$7,$8,$9,$2,$3,0*
0 Add four circle primitives for the rounded corners*
1,1,$1+$1,$2,$3*
1,1,$1+$1,$4,$5*
1,1,$1+$1,$6,$7*
1,1,$1+$1,$8,$9*
0 Add four rect primitives between the rounded corners*
20,1,$1+$1,$2,$3,$4,$5,0*
20,1,$1+$1,$4,$5,$6,$7,0*
20,1,$1+$1,$6,$7,$8,$9,0*
20,1,$1+$1,$8,$9,$2,$3,0*%
G04 Aperture macros list end*
G04 #@! TA.AperFunction,SMDPad,CuDef*
%ADD10RoundRect,0.250000X-0.650000X0.412500X-0.650000X-0.412500X0.650000X-0.412500X0.650000X0.412500X0*%
G04 #@! TD*
G04 #@! TA.AperFunction,SMDPad,CuDef*
%ADD11R,0.650000X1.700000*%
G04 #@! TD*
G04 #@! TA.AperFunction,ComponentPad*
%ADD12R,1.700000X1.700000*%
G04 #@! TD*
G04 #@! TA.AperFunction,ComponentPad*
%ADD13O,1.700000X1.700000*%
G04 #@! TD*
G04 #@! TA.AperFunction,Conductor*
%ADD14C,0.400000*%
G04 #@! TD*
G04 APERTURE END LIST*
D10*
G04 #@! TO.P,C1,1*
G04 #@! TO.N,+5V*
X2540000Y11722500D03*
G04 #@! TO.P,C1,2*
G04 #@! TO.N,GND*
X2540000Y8597500D03*
G04 #@! TD*
D11*
G04 #@! TO.P,U1,1,~{RESET}/PB5*
G04 #@! TO.N,/PB5*
X5715000Y6510000D03*
G04 #@! TO.P,U1,2,XTAL1/PB3*
G04 #@! TO.N,/PB3*
X6985000Y6510000D03*
G04 #@! TO.P,U1,3,XTAL2/PB4*
G04 #@! TO.N,/PB4*
X8255000Y6510000D03*
G04 #@! TO.P,U1,4,GND*
G04 #@! TO.N,GND*
X9525000Y6510000D03*
G04 #@! TO.P,U1,5,AREF/PB0*
G04 #@! TO.N,/PB0*
X9525000Y13810000D03*
G04 #@! TO.P,U1,6,PB1*
G04 #@! TO.N,/PB1*
X8255000Y13810000D03*
G04 #@! TO.P,U1,7,PB2*
G04 #@! TO.N,/PB2*
X6985000Y13810000D03*
G04 #@! TO.P,U1,8,VCC*
G04 #@! TO.N,+5V*
X5715000Y13810000D03*
G04 #@! TD*
D12*
G04 #@! TO.P,J1,1,Pin_1*
G04 #@! TO.N,+5V*
X2540000Y17780000D03*
D13*
G04 #@! TO.P,J1,2,Pin_2*
G04 #@! TO.N,/PB2*
X5080000Y17780000D03*
G04 #@! TO.P,J1,3,Pin_3*
G04 #@! TO.N,/PB1*
X7620000Y17780000D03*
G04 #@! TO.P,J1,4,Pin_4*
G04 #@! TO.N,/PB0*
X10160000Y17780000D03*
G04 #@! TD*
D12*
G04 #@! TO.P,J2,1,Pin_1*
G04 #@! TO.N,/PB5*
X2540000Y2540000D03*
D13*
G04 #@! TO.P,J2,2,Pin_2*
G04 #@! TO.N,/PB3*
X5080000Y2540000D03*
G04 #@! TO.P,J2,3,Pin_3*
G04 #@! TO.N,/PB4*
X7620000Y2540000D03*
G04 #@! TO.P,J2,4,Pin_4*
G04 #@! TO.N,GND*
X10160000Y2540000D03*
G04 #@! TD*
D14*
G04 #@! TO.N,+5V*
X5022500Y11722500D02*
X5715000Y12415000D01*
X2540000Y17780000D02*
X2540000Y11722500D01*
X2540000Y11722500D02*
X5022500Y11722500D01*
X5715000Y12415000D02*
X5715000Y13810000D01*
G04 #@! TO.N,GND*
X9525000Y6510000D02*
X9525000Y3175000D01*
X2540000Y8597500D02*
X8537500Y8597500D01*
X9525000Y7610000D02*
X9525000Y6510000D01*
X8537500Y8597500D02*
X9525000Y7610000D01*
X9525000Y3175000D02*
X10160000Y2540000D01*
G04 #@! TO.N,/PB0*
X9525000Y13810000D02*
X9525000Y17145000D01*
X9525000Y17145000D02*
X10160000Y17780000D01*
G04 #@! TO.N,/PB1*
X8255000Y17145000D02*
X7620000Y17780000D01*
X8255000Y13810000D02*
X8255000Y17145000D01*
G04 #@! TO.N,/PB2*
X6985000Y15875000D02*
X6985000Y13810000D01*
X5080000Y17780000D02*
X6985000Y15875000D01*
G04 #@! TO.N,/PB5*
X5715000Y5715000D02*
X2540000Y2540000D01*
X5715000Y6510000D02*
X5715000Y5715000D01*
G04 #@! TO.N,/PB3*
X6985000Y6510000D02*
X6985000Y4445000D01*
X6985000Y4445000D02*
X5080000Y2540000D01*
G04 #@! TO.N,/PB4*
X8255000Y6510000D02*
X8255000Y3175000D01*
X8255000Y3175000D02*
X7620000Y2540000D01*
G04 #@! TD*
M02*
